<svg width="9" height="9" viewBox="0 0 9 9" fill="none" xmlns="http://www.w3.org/2000/svg">
<path d="M3.33329 5.1721C3.33329 5.13139 3.36661 5.09807 3.40732 5.09807H3.73306C3.77377 5.09807 3.80709 5.13139 3.80709 5.1721V6.43803H6.43517V5.00924C6.43517 3.99946 5.6164 3.18068 4.60662 3.18068C3.59684 3.18068 2.77806 3.99946 2.77806 5.00924V6.43803H3.33329V5.1721Z" fill="#492419"/>
<path d="M2.42205 3.13997L2.71522 2.84681C2.73817 2.82386 2.73817 2.78611 2.71522 2.76316L2.21255 2.26049C2.20142 2.24947 2.18639 2.24328 2.17072 2.24328C2.15506 2.24328 2.14002 2.24947 2.12889 2.26049L1.83573 2.55365C1.82471 2.56478 1.81853 2.57981 1.81853 2.59548C1.81853 2.61114 1.82471 2.62617 1.83573 2.63731L2.3384 3.13997C2.36135 3.16292 2.39836 3.16292 2.42205 3.13997ZM7.37915 2.55365L7.08598 2.26049C7.07485 2.24947 7.05982 2.24328 7.04416 2.24328C7.02849 2.24328 7.01346 2.24947 7.00233 2.26049L6.49966 2.76316C6.48864 2.77429 6.48246 2.78932 6.48246 2.80498C6.48246 2.82065 6.48864 2.83568 6.49966 2.84681L6.79282 3.13997C6.81577 3.16292 6.85353 3.16292 6.87648 3.13997L7.37915 2.63731C7.40209 2.61362 7.40209 2.5766 7.37915 2.55365ZM4.39941 2.17387H4.81398C4.84656 2.17387 4.87321 2.14722 4.87321 2.11465V1.40395C4.87321 1.37138 4.84656 1.34473 4.81398 1.34473H4.39941C4.36684 1.34473 4.34019 1.37138 4.34019 1.40395V2.11465C4.34019 2.14722 4.36684 2.17387 4.39941 2.17387ZM6.97568 7.44485H2.23772C2.10668 7.44485 2.00082 7.55072 2.00082 7.68175V7.85943C2.00082 7.892 2.02747 7.91865 2.06004 7.91865H7.15335C7.18593 7.91865 7.21258 7.892 7.21258 7.85943V7.68175C7.21258 7.55072 7.10671 7.44485 6.97568 7.44485ZM2.24512 6.73416C2.24512 6.86519 2.35099 6.97106 2.48202 6.97106H6.73138C6.86241 6.97106 6.96828 6.86519 6.96828 6.73416V5.00925C6.96828 3.70483 5.91112 2.64767 4.6067 2.64767C3.30228 2.64767 2.24512 3.70483 2.24512 5.00925V6.73416ZM2.77814 5.00925C2.77814 3.99947 3.59692 3.18069 4.6067 3.18069C5.61648 3.18069 6.43526 3.99947 6.43526 5.00925V6.43804H3.80717V5.17211C3.80717 5.1314 3.77385 5.09808 3.73314 5.09808H3.4074C3.36669 5.09808 3.33337 5.1314 3.33337 5.17211V6.43804H2.77814V5.00925Z" fill="#FE2E00"/>
</svg>
