<svg width="13" height="12" viewBox="0 0 13 12" fill="none" xmlns="http://www.w3.org/2000/svg">
<path d="M11.5281 2.6345C10.8677 2.35919 10.2067 2.25445 9.54605 2.25445C7.44886 2.25428 5.35184 3.30932 3.25465 3.30932C2.7287 3.30932 2.20308 3.24299 1.67712 3.07716C1.61804 3.05855 1.55879 3.04975 1.5009 3.04975C1.20786 3.04975 0.951782 3.27514 0.951782 3.58802V8.95647C0.951782 9.17018 1.07489 9.37273 1.27257 9.45497C1.93304 9.73044 2.59401 9.83519 3.25465 9.83519C5.35184 9.83519 7.44903 8.78015 9.54622 8.78015C10.0722 8.78015 10.5978 8.84648 11.1237 9.01231C11.1828 9.03092 11.2421 9.03972 11.3 9.03972C11.593 9.03972 11.8491 8.81433 11.8491 8.50145V3.13317C11.8489 2.91929 11.7258 2.71691 11.5281 2.6345ZM1.76907 3.9503C2.11165 4.03559 2.46921 4.0784 2.83699 4.10141C2.73687 4.59873 2.2969 4.97353 1.76907 4.97353V3.9503ZM1.76907 8.77287V7.96437C2.35428 7.96437 2.82779 8.42581 2.85384 9.00334C2.47023 8.97271 2.11165 8.89656 1.76907 8.77287ZM6.40035 7.66926C5.64794 7.66926 5.03821 6.94182 5.03821 6.04482C5.03821 5.14765 5.64811 4.42038 6.40035 4.42038C7.15259 4.42038 7.76249 5.14765 7.76249 6.04482C7.76249 6.94216 7.15242 7.66926 6.40035 7.66926ZM11.0316 8.13934C10.7333 8.06505 10.4236 8.02343 10.1067 7.99652C10.2067 7.55521 10.575 7.22017 11.0316 7.16264V8.13934ZM11.0316 4.14405C10.5057 4.07789 10.0975 3.64149 10.0814 3.10255C10.4141 3.13927 10.7299 3.20797 11.0316 3.31677V4.14405Z" fill="white" fill-opacity="0.4"/>
</svg>
