<svg width="13" height="12" viewBox="0 0 13 12" fill="none" xmlns="http://www.w3.org/2000/svg">
<path d="M9.83536 1.54747H8.05863C8.05863 0.763487 7.42123 0.126083 6.63724 0.126083C5.85326 0.126083 5.21585 0.763487 5.21585 1.54747H3.43912C2.85057 1.54747 2.37308 2.02497 2.37308 2.61351V10.4311C2.37308 11.0197 2.85057 11.4972 3.43912 11.4972H9.83536C10.4239 11.4972 10.9014 11.0197 10.9014 10.4311V2.61351C10.9014 2.02497 10.4239 1.54747 9.83536 1.54747ZM4.50516 9.54278C4.20978 9.54278 3.97214 9.30514 3.97214 9.00976C3.97214 8.71438 4.20978 8.47674 4.50516 8.47674C4.80054 8.47674 5.03818 8.71438 5.03818 9.00976C5.03818 9.30514 4.80054 9.54278 4.50516 9.54278ZM4.50516 7.4107C4.20978 7.4107 3.97214 7.17306 3.97214 6.87768C3.97214 6.58229 4.20978 6.34466 4.50516 6.34466C4.80054 6.34466 5.03818 6.58229 5.03818 6.87768C5.03818 7.17306 4.80054 7.4107 4.50516 7.4107ZM4.50516 5.27861C4.20978 5.27861 3.97214 5.04098 3.97214 4.74559C3.97214 4.45021 4.20978 4.21257 4.50516 4.21257C4.80054 4.21257 5.03818 4.45021 5.03818 4.74559C5.03818 5.04098 4.80054 5.27861 4.50516 5.27861ZM6.63724 1.01445C6.93262 1.01445 7.17026 1.25209 7.17026 1.54747C7.17026 1.84285 6.93262 2.08049 6.63724 2.08049C6.34186 2.08049 6.10422 1.84285 6.10422 1.54747C6.10422 1.25209 6.34186 1.01445 6.63724 1.01445ZM9.48002 9.18743C9.48002 9.28515 9.40006 9.3651 9.30234 9.3651H6.10422C6.0065 9.3651 5.92655 9.28515 5.92655 9.18743V8.83208C5.92655 8.73436 6.0065 8.65441 6.10422 8.65441H9.30234C9.40006 8.65441 9.48002 8.73436 9.48002 8.83208V9.18743ZM9.48002 7.05535C9.48002 7.15307 9.40006 7.23302 9.30234 7.23302H6.10422C6.0065 7.23302 5.92655 7.15307 5.92655 7.05535V6.7C5.92655 6.60228 6.0065 6.52233 6.10422 6.52233H9.30234C9.40006 6.52233 9.48002 6.60228 9.48002 6.7V7.05535ZM9.48002 4.92327C9.48002 5.02099 9.40006 5.10094 9.30234 5.10094H6.10422C6.0065 5.10094 5.92655 5.02099 5.92655 4.92327V4.56792C5.92655 4.4702 6.0065 4.39025 6.10422 4.39025H9.30234C9.40006 4.39025 9.48002 4.4702 9.48002 4.56792V4.92327Z" fill="white" fill-opacity="0.4"/>
</svg>
