<svg width="13" height="12" viewBox="0 0 13 12" fill="none" xmlns="http://www.w3.org/2000/svg">
<path d="M12.1777 7.55002L11.1575 6.98605C11.2605 6.45418 11.2605 5.90855 11.1575 5.37668L12.1777 4.81271C12.2951 4.74852 12.3477 4.61555 12.3094 4.49176C12.0436 3.67561 11.591 2.93741 10.9995 2.323C10.9085 2.22901 10.76 2.20608 10.645 2.27027L9.62483 2.83424C9.19616 2.48119 8.70282 2.20837 8.16878 2.02955V0.903911C8.16878 0.775528 8.07538 0.663193 7.94367 0.635683C7.06477 0.447693 6.16431 0.456863 5.32852 0.635683C5.19681 0.663193 5.10341 0.775528 5.10341 0.903911V2.03185C4.57176 2.21296 4.07843 2.48577 3.64736 2.83653L2.62956 2.27257C2.51221 2.20837 2.36613 2.22901 2.27513 2.32529C1.68361 2.93741 1.23099 3.67561 0.965161 4.49405C0.924449 4.61785 0.97953 4.75081 1.09688 4.81501L2.11707 5.37897C2.01409 5.91085 2.01409 6.45647 2.11707 6.98835L1.09688 7.55231C0.97953 7.6165 0.926844 7.74947 0.965161 7.87327C1.23099 8.68942 1.68361 9.42762 2.27513 10.042C2.36613 10.136 2.51461 10.1589 2.62956 10.0948L3.64975 9.53079C4.07843 9.88384 4.57176 10.1567 5.1058 10.3355V11.4634C5.1058 11.5918 5.1992 11.7041 5.33092 11.7316C6.20982 11.9196 7.11027 11.9105 7.94606 11.7316C8.07778 11.7041 8.17117 11.5918 8.17117 11.4634V10.3355C8.70282 10.1544 9.19616 9.88155 9.62722 9.53079L10.6474 10.0948C10.7648 10.1589 10.9108 10.1383 11.0018 10.042C11.5934 9.42991 12.046 8.69171 12.3118 7.87327C12.3477 7.74718 12.2951 7.61421 12.1777 7.55002ZM6.63609 8.01541C5.57998 8.01541 4.72024 7.19238 4.72024 6.18137C4.72024 5.17035 5.57998 4.34732 6.63609 4.34732C7.69221 4.34732 8.55195 5.17035 8.55195 6.18137C8.55195 7.19238 7.69221 8.01541 6.63609 8.01541Z" fill="white" fill-opacity="0.4"/>
</svg>
