<svg width="13" height="10" viewBox="0 0 13 10" fill="none" xmlns="http://www.w3.org/2000/svg">
<path d="M6.71764 2.87847L2.92624 6.00113V9.37137C2.92624 9.45863 2.96091 9.54232 3.02261 9.60403C3.08431 9.66573 3.168 9.7004 3.25526 9.7004L5.55967 9.69443C5.64665 9.694 5.72992 9.65914 5.79127 9.59748C5.85261 9.53583 5.88705 9.45239 5.88705 9.36541V7.39722C5.88705 7.30996 5.92172 7.22627 5.98342 7.16456C6.04513 7.10286 6.12882 7.0682 6.21608 7.0682H7.53218C7.61944 7.0682 7.70313 7.10286 7.76483 7.16456C7.82654 7.22627 7.8612 7.30996 7.8612 7.39722V9.36397C7.86107 9.40726 7.86948 9.45016 7.88595 9.4902C7.90243 9.53023 7.92664 9.56663 7.95721 9.59729C7.98777 9.62795 8.02409 9.65228 8.06408 9.66888C8.10406 9.68548 8.14693 9.69402 8.19023 9.69402L10.4938 9.7004C10.5811 9.7004 10.6648 9.66573 10.7265 9.60403C10.7882 9.54232 10.8228 9.45863 10.8228 9.37137V5.99886L7.03227 2.87847C6.9877 2.84255 6.93219 2.82297 6.87495 2.82297C6.81771 2.82297 6.7622 2.84255 6.71764 2.87847ZM12.7065 5.00089L10.9874 3.58382V0.735492C10.9874 0.670045 10.9614 0.607279 10.9151 0.561001C10.8688 0.514723 10.806 0.488724 10.7406 0.488724H9.58899C9.52355 0.488724 9.46078 0.514723 9.4145 0.561001C9.36823 0.607279 9.34223 0.670045 9.34223 0.735492V2.22865L7.50113 0.7139C7.32444 0.568508 7.10274 0.489014 6.87392 0.489014C6.64511 0.489014 6.4234 0.568508 6.24672 0.7139L1.04134 5.00089C1.01635 5.02154 0.995677 5.04692 0.980499 5.07556C0.965321 5.10421 0.955936 5.13557 0.952881 5.16784C0.949825 5.20011 0.953159 5.23267 0.962691 5.26366C0.972224 5.29464 0.987768 5.32345 1.00844 5.34842L1.53282 5.98591C1.55343 6.01097 1.57878 6.03172 1.60743 6.04698C1.63607 6.06223 1.66744 6.07168 1.69974 6.07479C1.73204 6.07791 1.76463 6.07462 1.79566 6.06512C1.82669 6.05562 1.85554 6.04009 1.88056 6.01943L6.71764 2.03535C6.7622 1.99943 6.81771 1.97984 6.87495 1.97984C6.93219 1.97984 6.9877 1.99943 7.03227 2.03535L11.8696 6.01943C11.8945 6.0401 11.9233 6.05564 11.9543 6.06517C11.9853 6.07471 12.0179 6.07804 12.0501 6.07498C12.0824 6.07193 12.1138 6.06254 12.1424 6.04737C12.1711 6.03219 12.1964 6.01151 12.2171 5.98653L12.7415 5.34904C12.7621 5.32392 12.7776 5.29497 12.787 5.26385C12.7964 5.23273 12.7996 5.20005 12.7964 5.1677C12.7931 5.13534 12.7835 5.10395 12.7681 5.07533C12.7527 5.0467 12.7317 5.0214 12.7065 5.00089Z" fill="white"/>
</svg>
