<svg width="13" height="13" viewBox="0 0 13 13" fill="none" xmlns="http://www.w3.org/2000/svg">
<path d="M11.9822 8.99957H2.78764V2.99815C2.78764 2.82364 2.63525 2.68229 2.4471 2.68229H1.76602C1.57787 2.68229 1.42548 2.82364 1.42548 2.99815V9.6313C1.42548 9.98013 1.73047 10.263 2.10656 10.263H11.9822C12.1704 10.263 12.3228 10.1217 12.3228 9.94716V9.31543C12.3228 9.14092 12.1704 8.99957 11.9822 8.99957ZM11.3012 3.31402H8.78839C8.33335 3.31402 8.1054 3.82433 8.42721 4.12283L9.1168 4.76245L7.55521 6.21108L5.99362 4.76265C5.72757 4.51588 5.29636 4.51588 5.03053 4.76265L3.56854 6.11869C3.43552 6.24208 3.43552 6.44206 3.56854 6.56544L4.04998 7.01199C4.18301 7.13538 4.39861 7.13538 4.53163 7.01199L5.51197 6.1025L7.07356 7.55094C7.33961 7.79771 7.77082 7.79771 8.03665 7.55094L10.0799 5.65575L10.7695 6.29538C11.0913 6.59387 11.6415 6.38244 11.6415 5.96036V3.62988C11.6417 3.45537 11.4893 3.31402 11.3012 3.31402Z" fill="white" fill-opacity="0.4"/>
</svg>
