<svg width="13" height="13" viewBox="0 0 13 13" fill="none" xmlns="http://www.w3.org/2000/svg">
<path d="M6.87413 1.59013C3.86503 1.59013 1.42548 3.75673 1.42548 6.42961C1.42548 7.58271 1.88116 8.64019 2.63908 9.47151C2.37175 10.6421 1.48294 11.6872 1.4723 11.6995C1.44938 11.7259 1.43405 11.7591 1.42819 11.7949C1.42234 11.8307 1.42622 11.8676 1.43936 11.901C1.45249 11.9345 1.47431 11.963 1.50211 11.983C1.52991 12.003 1.56246 12.0136 1.59575 12.0136C3.00601 12.0136 4.06445 11.2749 4.58825 10.8182C5.28402 11.1046 6.05662 11.2691 6.87413 11.2691C9.88323 11.2691 12.3228 9.1025 12.3228 6.42961C12.3228 3.75673 9.88323 1.59013 6.87413 1.59013ZM7.38494 8.62693V9.03549C7.38494 9.24117 7.23255 9.40776 7.0444 9.40776H6.70386C6.51571 9.40776 6.36332 9.24117 6.36332 9.03549V8.62297C6.12026 8.59156 5.88911 8.50222 5.68692 8.35633C5.55453 8.26071 5.54176 8.05131 5.65393 7.92869L6.02682 7.52106C6.10642 7.43404 6.22497 7.42241 6.32714 7.47383C6.39482 7.5078 6.46889 7.52548 6.54551 7.52548H7.24319C7.34237 7.52548 7.42283 7.43753 7.42283 7.32957C7.42283 7.24232 7.36919 7.16484 7.29257 7.14088L6.22689 6.80816C5.75332 6.66042 5.37532 6.23324 5.3136 5.69904C5.2274 4.95287 5.71863 4.31629 6.36332 4.23207V3.82374C6.36332 3.61806 6.51571 3.45147 6.70386 3.45147H7.0444C7.23255 3.45147 7.38494 3.61806 7.38494 3.82374V4.23626C7.628 4.26767 7.85914 4.35701 8.06134 4.50289C8.19373 4.59852 8.20649 4.80792 8.09433 4.93054L7.72144 5.33817C7.64184 5.42519 7.52329 5.43682 7.42112 5.3854C7.3526 5.35115 7.2781 5.33353 7.20275 5.33375H6.50507C6.40589 5.33375 6.32543 5.4217 6.32543 5.52965C6.32543 5.61691 6.37907 5.69438 6.45569 5.71835L7.52137 6.05106C7.99493 6.19904 8.37293 6.62598 8.43466 7.16019C8.52086 7.90612 8.02963 8.5427 7.38494 8.62693Z" fill="white" fill-opacity="0.4"/>
</svg>
